<svg xmlns="http://www.w3.org/2000/svg" viewBox="0 0 640 420" role="img" aria-labelledby="title desc">
  <title id="title">Clinic location illustration</title>
  <desc id="desc">An abstract map illustration with a clinic location pin and route.</desc>
  <defs>
    <linearGradient id="bg" x1="0%" x2="100%" y1="0%" y2="100%">
      <stop offset="0%" stop-color="#eef9f5" />
      <stop offset="100%" stop-color="#fdf8ed" />
    </linearGradient>
    <linearGradient id="pin" x1="0%" x2="100%" y1="0%" y2="100%">
      <stop offset="0%" stop-color="#20b563" />
      <stop offset="55%" stop-color="#0fb5b2" />
      <stop offset="100%" stop-color="#e1b243" />
    </linearGradient>
  </defs>
  <rect width="640" height="420" rx="34" fill="url(#bg)" />
  <circle cx="101" cy="108" r="54" fill="#dff6ea" />
  <circle cx="540" cy="309" r="72" fill="#eef4cd" />
  <path d="M83 129c49-28 101-46 157-54 84-12 167 1 245 39 40 20 77 47 110 82" fill="none" stroke="#d8ece4" stroke-linecap="round" stroke-width="40" />
  <path d="M116 165c47-24 96-40 148-46 77-10 150 1 220 34 35 16 66 39 93 68" fill="none" stroke="#ffffff" opacity=".95" stroke-linecap="round" stroke-width="24" />
  <path d="M185 312c34-7 69-11 103-12 56-2 113 4 169 18" fill="none" stroke="#d8ece4" stroke-linecap="round" stroke-width="26" />
  <path d="M320 97c58 0 105 47 105 105 0 73-79 152-105 175-26-23-105-102-105-175 0-58 47-105 105-105Z" fill="url(#pin)" />
  <circle cx="320" cy="202" r="42" fill="#ffffff" opacity=".95" />
  <circle cx="320" cy="202" r="18" fill="#20b563" opacity=".85" />
  <rect x="86" y="302" width="158" height="70" rx="22" fill="#ffffff" opacity=".92" />
  <rect x="105" y="321" width="98" height="12" rx="6" fill="#d9efe5" />
  <rect x="105" y="344" width="120" height="12" rx="6" fill="#eef5ef" />
  <rect x="403" y="82" width="148" height="76" rx="22" fill="#ffffff" opacity=".9" />
  <rect x="423" y="103" width="108" height="12" rx="6" fill="#d9efe5" />
  <rect x="423" y="126" width="72" height="12" rx="6" fill="#eef5ef" />
</svg>
